# xmcd
#
# Track frame offsets: 
#        150
#        26421
#        58454
#        72182
#        95658
#        124834
#        151013
#        172043
#
# Disc length: 2618 seconds
#
# Revision: 1
# Processed by: cddbd v1.5.2PL0 Copyright (c) Steve Scherf et al.
# Submitted via: ExactAudioCopy v0.99pb4
#
DISCID=6a0a3808
DTITLE=Vittor Santos - Renewed Impressions
DYEAR=2006
DGENRE=Adventure Music
TTITLE0=Luanne
TTITLE1=An American in the Samba
TTITLE2=Everlasting Warmth of Fellowship
TTITLE3=London Samba
TTITLE4=I Just Remembered Everything!
TTITLE5=A Trombone on Tereza Street
TTITLE6=Etienne and Margot
TTITLE7=The Moving Water
EXTD=YEAR: 2006
EXTT0=
EXTT1=
EXTT2=
EXTT3=
EXTT4=
EXTT5=
EXTT6=
EXTT7=
PLAYORDER=
